<?xml version="1.0" encoding="utf-8"?>
<!-- Generator: Adobe Illustrator 24.1.2, SVG Export Plug-In . SVG Version: 6.00 Build 0)  -->
<svg version="1.1" id="Layer_1" xmlns="http://www.w3.org/2000/svg" xmlns:xlink="http://www.w3.org/1999/xlink" x="0px" y="0px"
	 viewBox="0 0 550.07 184.24" style="enable-background:new 0 0 550.07 184.24;" xml:space="preserve">
<style type="text/css">
	.st0{fill:#222C33;}
	.st1{fill:#13E23F;}
</style>
<g>
	<g>
		<path class="st0" d="M162.15,42.81H76.17v17.2H34.39V8.42h41.78h85.98V42.81z M76.17,128.79H34.39v51.59h41.78V128.79z
			 M179.35,180.38V8.42h41.78v171.96H179.35z M358.6,18.93c11.59,9.58,17.39,23.55,17.39,41.9h-43.47c0-7.73-2.22-13.65-6.64-17.75
			c-4.43-4.11-10.75-6.16-18.96-6.16c-6.92,0-12.44,1.49-16.54,4.47c-4.11,2.98-6.16,6.88-6.16,11.71c0,3.71,1.09,6.72,3.26,9.06
			c2.17,2.34,5.59,4.39,10.26,6.16c4.67,1.77,11.59,3.79,20.77,6.04c13.68,3.38,24.75,6.88,33.21,10.51
			c8.45,3.62,15.37,8.98,20.77,16.06c5.39,7.09,8.09,16.51,8.09,28.26c0,11.11-2.9,20.81-8.69,29.1
			c-5.8,8.29-13.97,14.69-24.51,19.2c-10.55,4.51-22.91,6.76-37.07,6.76c-22.54,0-40.17-5.23-52.89-15.7
			c-12.72-10.46-19.08-25.2-19.08-44.2h44.44c0,17.71,9.5,26.57,28.5,26.57c7.89,0,14.09-1.61,18.6-4.83
			c4.51-3.22,6.76-7.65,6.76-13.28c0-4.19-1.09-7.49-3.26-9.9c-2.17-2.41-5.35-4.38-9.54-5.92c-4.19-1.53-10.87-3.5-20.05-5.92
			c-14.01-3.54-25.2-7.08-33.57-10.63c-8.37-3.54-15.3-8.77-20.77-15.7c-5.48-6.92-8.21-16.18-8.21-27.77
			c0-10.46,2.74-19.64,8.21-27.53c5.47-7.89,13.32-14.01,23.55-18.35c10.22-4.35,22.1-6.52,35.62-6.52
			C330.34,4.56,347,9.35,358.6,18.93z M397.77,8.42v51.59h41.78v-17.2h85.98V8.42H397.77z M439.55,145.99v-17.2h-41.78v51.59h127.76
			v-34.39H439.55z"/>
		<path class="st1" d="M397.77,77.2h110.56v34.39H397.77V77.2z M0,111.6h144.96V77.2H0V111.6z"/>
	</g>
	<g>
		<path class="st0" d="M533.19,8.88c0-1.6,0.37-3.09,1.11-4.46c0.74-1.37,1.77-2.45,3.08-3.24c1.31-0.79,2.73-1.18,4.25-1.18
			c1.52,0,2.94,0.39,4.25,1.18c1.31,0.79,2.34,1.87,3.08,3.24c0.74,1.37,1.11,2.86,1.11,4.46c0,1.62-0.38,3.11-1.13,4.49
			s-1.78,2.45-3.08,3.24c-1.3,0.78-2.71,1.18-4.22,1.18c-1.53,0-2.95-0.4-4.25-1.19c-1.3-0.79-2.33-1.87-3.07-3.24
			S533.19,10.48,533.19,8.88z M534.64,8.88c0,1.31,0.29,2.53,0.88,3.66c0.59,1.13,1.43,2.04,2.51,2.73
			c1.09,0.69,2.28,1.03,3.59,1.03c1.3,0,2.49-0.34,3.57-1.02c1.08-0.68,1.92-1.59,2.51-2.72s0.89-2.36,0.89-3.67
			s-0.3-2.54-0.89-3.67c-0.59-1.13-1.43-2.03-2.52-2.71c-1.09-0.68-2.27-1.02-3.56-1.02c-1.26,0-2.43,0.32-3.51,0.97
			c-1.08,0.65-1.93,1.54-2.55,2.69S534.64,7.53,534.64,8.88z M539.92,9.78v4h-1.79V3.68h3.34c1.22,0,2.17,0.28,2.85,0.83
			c0.68,0.55,1.02,1.32,1.02,2.31c0,0.87-0.42,1.54-1.27,2.02c0.46,0.25,0.78,0.6,0.96,1.05s0.27,0.99,0.27,1.65
			c0,0.65,0.01,1.11,0.04,1.38c0.03,0.27,0.08,0.5,0.16,0.68v0.19h-1.84c-0.1-0.27-0.15-1.04-0.15-2.31c0-0.6-0.13-1.04-0.39-1.3
			c-0.26-0.27-0.7-0.4-1.31-0.4H539.92z M539.92,8.19h1.52c0.6,0,1.1-0.12,1.5-0.37c0.4-0.25,0.6-0.58,0.6-1
			c0-0.55-0.14-0.95-0.42-1.18c-0.28-0.23-0.79-0.35-1.53-0.36h-1.68V8.19z"/>
	</g>
</g>
</svg>
