<svg id="Layer_1" data-name="Layer 1" xmlns="http://www.w3.org/2000/svg" viewBox="0 0 512 512"><defs><style>.cls-1{fill:#ec5242;}</style></defs><path class="cls-1" d="M320.12,209.24V184L256.5,209.39V184l-63.63,25.41V147.3H128.75V326.74h254.5V183.92Zm-176-46.53H178v9.94h-33.8ZM368.34,311.83H143.66V187.56H178v44.05l63.62-25.33v25.33l63.13-25.21v25.37l63.63-25.33Z"/><path class="cls-1" d="M178,250.19V290h39.77V250.19Zm24.36,24.86h-9.45V265.6h9.45Z"/><path class="cls-1" d="M241.58,250.19V290h39.77V250.19Zm24.36,24.86H256.5V265.6h9.44Z"/><path class="cls-1" d="M304.71,250.19V290h39.77V250.19Zm24.86,24.86h-9.45V265.6h9.45Z"/><path class="cls-1" d="M96,452H461V0H96A45,45,0,0,0,51,45V467a45.05,45.05,0,0,0,45,45H461V482H96a15,15,0,0,1,0-30ZM81,45A15,15,0,0,1,96,30H431V422H96a44.63,44.63,0,0,0-15,2.58Zm0,0"/></svg>