<svg id="Layer_1" data-name="Layer 1" xmlns="http://www.w3.org/2000/svg" viewBox="0 0 512 512"><defs><style>.cls-1{fill:#ffffff;}.cls-2{fill:none;}</style></defs><path class="cls-1" d="M468.27,161a53,53,0,0,0-69.35,49L327,233.42a82.54,82.54,0,0,0-53.45-38.84V119a53,53,0,1,0-35.32,0v75.6a82.55,82.55,0,0,0-53.45,38.84l-71.9-23.36A53,53,0,1,0,102,243.65L173.87,267c-.26,2.65-.4,5.35-.4,8.08a82.09,82.09,0,0,0,20.82,54.74L149.84,391a53,53,0,1,0,28.58,20.77l44.44-61.17a82.44,82.44,0,0,0,66.08,0l44.43,61.16A53.19,53.19,0,1,0,362,391l-44.45-61.19a82.14,82.14,0,0,0,20.82-54.74c0-2.73-.14-5.43-.4-8.08l71.91-23.37A53,53,0,1,0,468.27,161ZM76.71,216.88a17.64,17.64,0,0,1-16.79,12.21,17.44,17.44,0,0,1-5.47-.88,17.67,17.67,0,0,1,5.45-34.47,17.42,17.42,0,0,1,5.46.88,17.68,17.68,0,0,1,11.35,22.26Zm74.86,230.4a17.64,17.64,0,0,1-16.79,12.22A17.71,17.71,0,0,1,118,436.36a17.64,17.64,0,0,1,16.79-12.22h0a17.71,17.71,0,0,1,16.81,23.14ZM238.24,69A17.66,17.66,0,1,1,255.9,86.68,17.68,17.68,0,0,1,238.24,69ZM255.9,322.2A47.1,47.1,0,1,1,303,275.1a47.15,47.15,0,0,1-47.1,47.1ZM360.23,436.37A17.64,17.64,0,0,1,377,424.15a17.67,17.67,0,1,1-16.79,12.22ZM468.69,216.88a17.71,17.71,0,1,1-11.34-22.26,17.64,17.64,0,0,1,11.34,22.26Zm0,0"/><rect class="cls-2" x="6.9" y="16" width="498.38" height="480"/></svg>