<svg id="Layer_1" data-name="Layer 1" xmlns="http://www.w3.org/2000/svg" viewBox="0 0 512 512"><defs><style>.cls-1{fill:#ec5242;}</style></defs><path class="cls-1" d="M350.94,200.91H291.35l37.57-91H205.44L170.23,286.67h46.12L204,426.81ZM207.19,256.35,230.32,140.2H283.6l-37.57,91h49l-50.17,77.13,4.58-52Zm0,0"/><path class="cls-1" d="M513.49,144.76,436,122.09l-22.68,77.52,29.11,8.51L451,178.7a209.44,209.44,0,0,1,14.94,77.72c0,115.38-93.87,209.26-209.26,209.26A209,209,0,0,1,149,435.88l-15.63,26a239.65,239.65,0,0,0,345.29-295.7l26.33,7.7Zm0,0"/><path class="cls-1" d="M255.83,46.32h1a208.8,208.8,0,0,1,107.55,30.3l15.75-25.92A239.25,239.25,0,0,0,257,16h-1.15A239.62,239.62,0,0,0,33.48,344.8L7.16,337-1.49,366l77.42,23,23-77.42L69.9,303l-8.73,29.35A209.55,209.55,0,0,1,46.59,254.6c.54-115.06,94.3-208.28,209.24-208.28Zm0,0"/></svg>