<svg id="Layer_1" data-name="Layer 1" xmlns="http://www.w3.org/2000/svg" viewBox="0 0 512 512">
<defs>
<style>
.cls-0{fill:#ec5242;}
.cls-1{fill:#ffffff;}
</style>
</defs>
<path class="cls-1" d="M0,51V461H512V51Zm30,90H482V431H30Zm0-60H482v30H30Zm0,30"/>
<rect class="cls-0" x="137.31" y="190.23" width="221" height="30"/>
<path class="cls-1" d="M238.25,282.9a41.25,41.25,0,0,0-37.73,24.67l-29.07-29.08a41.21,41.21,0,0,0-58.26,0l-5.82,5.83,75.73,75.73c16.21,16.21,41,15.11,65,14.05,21.36-.94,41.53-1.84,52.61,9.25l31.06,31.37,56.49-60.34-54.59-54.59a57.69,57.69,0,0,0-40.78-16.89ZM365,354.55l-33.19,37L313.69,373.2l34.95-34.95Zm-28.13-28.12L300.06,363.2c-10.31-4.9-22.4-6.09-34.92-6.09-5.93,0-12,.27-17.95.53-21.36.95-41.53,1.84-52.61-9.24l-63.09-63.09a24.74,24.74,0,0,1,28.14,4.83L197,327.41v4.92h61.32a34.74,34.74,0,0,1,24.73,10.25l11.65-11.66a51.14,51.14,0,0,0-36.38-15.06H214.78a24.76,24.76,0,0,1,23.3-16.48h54.63a40.94,40.94,0,0,1,29.13,12.07Z"/>
</svg>
