<svg id="Layer_1" data-name="Layer 1" xmlns="http://www.w3.org/2000/svg" viewBox="0 0 512 512"><defs><style>
.cls-0{fill:#ec5242;}
.cls-1{fill:#ffffff;}
</style></defs>
<path class="cls-1" d="M301.31,45.15a45,45,0,1,0-45,45A45.05,45.05,0,0,0,301.31,45.15Zm-45,15a15,15,0,1,1,15-15A15,15,0,0,1,256.31,60.15Z"/>
<path class="cls-1" d="M331,165.85c0-43.65-37.16-79.62-81.61-75.71C210.5,93.56,181,126.78,181,165.82v15H331Zm-117.13-15c6.24-17.84,23.15-31,42.44-31s36.2,13.16,42.44,31Z"/>
<path class="cls-1" d="M481.31,226.15a45,45,0,1,0-45,45A45.05,45.05,0,0,0,481.31,226.15Zm-45,15a15,15,0,1,1,15-15A15,15,0,0,1,436.31,241.15Z"/>
<path class="cls-1" d="M512,345.85c0-41.9-35.27-75.72-77.33-75-40.53.7-73.67,35.4-73.67,75.94v14.05H512Zm-118.12-15a45.08,45.08,0,0,1,42.43-30,46.66,46.66,0,0,1,43.26,30Z"/>
<path class="cls-1" d="M121.31,226.15a45,45,0,1,0-45,45A45.05,45.05,0,0,0,121.31,226.15Zm-45,15a15,15,0,1,1,15-15A15,15,0,0,1,76.31,241.15Z"/>
<path class="cls-1" d="M151,345.85A75.09,75.09,0,0,0,70.49,271C30.59,273.91,0,307.78,0,347.78v13.07H151Zm-118-15a46.69,46.69,0,0,1,43.27-30,45.09,45.09,0,0,1,42.43,30Z"/>
<path class="cls-1" d="M211.31,376.15a45,45,0,1,0,45-45A45,45,0,0,0,211.31,376.15Zm60,0a15,15,0,1,1-15-15A15,15,0,0,1,271.31,376.15Z"/>
<path class="cls-1" d="M331,496.85a75.08,75.08,0,0,0-77.78-75C212.75,423.37,181,457.28,181,497.78v14.07H331Zm-117.12-15a45,45,0,0,1,84.86,0Z"/>
<path class="cls-0" d="M91,135.85c0-24.94,20.61-46,45-46h15v-30H136a75,75,0,0,0-75,75v16H91Z"/>
<path class="cls-0" d="M421,135.85v15h30v-15a76.22,76.22,0,0,0-76-76H361v30h15C400.39,89.85,421,110.91,421,135.85Z"/>
<path class="cls-0" d="M61,390.85v15a76.22,76.22,0,0,0,76,76h14v-30H136c-24.39,0-45-21.07-45-46v-15Z"/>
<path class="cls-0" d="M451,406.85v-16H421v15c0,24.93-20.61,46-45,46H361v30h15A75,75,0,0,0,451,406.85Z"/>
</svg>